<svg width="100" height="46" viewBox="0 0 100 46" fill="none" xmlns="http://www.w3.org/2000/svg">
<path fill-rule="evenodd" clip-rule="evenodd" d="M9.84669 1.64248C8.88821 1.63991 7.95991 1.97748 7.22696 2.5951L7.10377 2.69365C6.7361 2.56558 6.35196 2.49091 5.96309 2.47192C4.79948 2.51825 3.69915 3.01391 2.89342 3.85471C2.08769 4.69551 1.63933 5.81595 1.64259 6.98048C1.64103 8.15356 2.09716 9.28097 2.91399 10.1229C3.73081 10.9649 4.84388 11.455 6.01647 11.489C6.78597 12.0347 7.7077 12.3244 8.65103 12.317C9.59436 12.3097 10.5115 12.0056 11.2723 11.448C11.4785 11.4808 11.6871 11.4972 11.8957 11.4972C12.5077 11.4961 13.1131 11.3711 13.6755 11.1297C14.238 10.8884 14.7457 10.5357 15.1683 10.0929C17.0431 8.12199 16.8247 4.47408 14.4349 3.01886C13.7937 2.62956 13.0581 2.42336 12.3079 2.42264H12.2586C11.5576 1.91369 10.713 1.64051 9.84669 1.64248V1.64248ZM13.1316 5.74863H8.20833C7.99053 5.74863 7.78164 5.66211 7.62763 5.5081C7.47362 5.35409 7.3871 5.1452 7.3871 4.9274C7.3871 4.7096 7.47362 4.50071 7.62763 4.3467C7.78164 4.19269 7.99053 4.10617 8.20833 4.10617H13.1283C13.3461 4.10617 13.555 4.19269 13.709 4.3467C13.863 4.50071 13.9496 4.7096 13.9496 4.9274C13.9496 5.1452 13.863 5.35409 13.709 5.5081C13.555 5.66211 13.3461 5.74863 13.1283 5.74863H13.1316ZM13.1283 9.01302H4.92259C4.70478 9.01302 4.4959 8.9265 4.34189 8.77249C4.18788 8.61848 4.10135 8.4096 4.10135 8.19179C4.10135 7.97399 4.18788 7.7651 4.34189 7.61109C4.4959 7.45708 4.70478 7.37056 4.92259 7.37056H13.1283C13.3461 7.37056 13.555 7.45708 13.709 7.61109C13.863 7.7651 13.9496 7.97399 13.9496 8.19179C13.9496 8.4096 13.863 8.61848 13.709 8.77249C13.555 8.9265 13.3461 9.01302 13.1283 9.01302V9.01302ZM9.84669 1.352e-05C10.8767 -0.00222622 11.8883 0.273852 12.7744 0.799071C13.0816 0.883333 13.3967 0.935351 13.7147 0.954284C14.0289 1.03367 14.3358 1.13972 14.632 1.27128C15.5142 1.66464 16.2834 2.27318 16.8693 3.04111C17.4551 3.80904 17.8388 4.71177 17.9851 5.66651C18.2164 6.98622 18.0315 8.3452 17.456 9.55515C16.8805 10.7651 15.943 11.7661 14.7732 12.4195C13.888 12.8905 12.9009 13.1377 11.8981 13.1397H11.692C10.7563 13.6784 9.69536 13.9616 8.61566 13.9609C7.50948 13.9651 6.42323 13.6666 5.47445 13.0978C3.96533 12.9398 2.56898 12.226 1.55711 11.0953C0.545243 9.96456 -0.00975146 8.49781 0.000129016 6.98048C0.000129016 6.86633 0.000129682 6.75217 0.0124481 6.64624C0.100706 5.1199 0.751701 3.68049 1.83959 2.60626C2.92747 1.53202 4.37499 0.899255 5.90231 0.830278H6.03371C6.27371 0.841693 6.51267 0.869129 6.749 0.912401C7.67268 0.317442 8.74799 0.000721872 9.84669 1.352e-05V1.352e-05Z" fill="white"/>
<path d="M15.6203 17.2447C14.7137 17.2447 13.9787 16.5097 13.9787 15.603C13.9787 14.6964 14.7137 13.9614 15.6203 13.9614C16.527 13.9614 17.262 14.6964 17.262 15.603C17.262 16.5097 16.527 17.2447 15.6203 17.2447Z" fill="white"/>
<path d="M17.2483 19.7118C16.7947 19.7118 16.427 19.3441 16.427 18.8905C16.427 18.437 16.7947 18.0693 17.2483 18.0693C17.7018 18.0693 18.0695 18.437 18.0695 18.8905C18.0695 19.3441 17.7018 19.7118 17.2483 19.7118Z" fill="white"/>
<line x1="4.00014" y1="20.85" x2="71.0001" y2="20.85" stroke="white" stroke-width="0.3"/>
<path d="M29.6201 12.448C30.3161 12.676 30.8681 13.06 31.2761 13.6C31.6841 14.128 31.8881 14.788 31.8881 15.58C31.8881 16.672 31.4681 17.518 30.6281 18.118C29.7881 18.706 28.5641 19 26.9561 19H20.6921V6.4H26.5961C28.0841 6.4 29.2301 6.694 30.0341 7.282C30.8381 7.858 31.2401 8.656 31.2401 9.676C31.2401 10.3 31.0961 10.852 30.8081 11.332C30.5201 11.812 30.1241 12.184 29.6201 12.448ZM23.0321 8.236V11.71H26.3441C27.1601 11.71 27.7841 11.566 28.2161 11.278C28.6601 10.978 28.8821 10.546 28.8821 9.982C28.8821 9.406 28.6601 8.974 28.2161 8.686C27.7841 8.386 27.1601 8.236 26.3441 8.236H23.0321ZM26.8121 17.164C28.6241 17.164 29.5301 16.558 29.5301 15.346C29.5301 14.134 28.6241 13.528 26.8121 13.528H23.0321V17.164H26.8121ZM34.3855 6.4H36.7255V17.02H43.3135V19H34.3855V6.4ZM50.8184 19.18C49.5344 19.18 48.3764 18.904 47.3444 18.352C46.3124 17.788 45.5024 17.014 44.9144 16.03C44.3264 15.034 44.0324 13.924 44.0324 12.7C44.0324 11.476 44.3264 10.372 44.9144 9.388C45.5024 8.392 46.3124 7.618 47.3444 7.066C48.3764 6.502 49.5344 6.22 50.8184 6.22C52.1024 6.22 53.2604 6.502 54.2924 7.066C55.3244 7.618 56.1344 8.386 56.7224 9.37C57.3104 10.354 57.6044 11.464 57.6044 12.7C57.6044 13.936 57.3104 15.046 56.7224 16.03C56.1344 17.014 55.3244 17.788 54.2924 18.352C53.2604 18.904 52.1024 19.18 50.8184 19.18ZM50.8184 17.128C51.6584 17.128 52.4144 16.942 53.0864 16.57C53.7584 16.186 54.2864 15.658 54.6704 14.986C55.0544 14.302 55.2464 13.54 55.2464 12.7C55.2464 11.86 55.0544 11.104 54.6704 10.432C54.2864 9.748 53.7584 9.22 53.0864 8.848C52.4144 8.464 51.6584 8.272 50.8184 8.272C49.9784 8.272 49.2224 8.464 48.5504 8.848C47.8784 9.22 47.3504 9.748 46.9664 10.432C46.5824 11.104 46.3904 11.86 46.3904 12.7C46.3904 13.54 46.5824 14.302 46.9664 14.986C47.3504 15.658 47.8784 16.186 48.5504 16.57C49.2224 16.942 49.9784 17.128 50.8184 17.128ZM68.6887 12.556H70.9027V17.578C70.2547 18.094 69.4987 18.49 68.6347 18.766C67.7707 19.042 66.8827 19.18 65.9707 19.18C64.6867 19.18 63.5287 18.904 62.4967 18.352C61.4647 17.788 60.6547 17.014 60.0667 16.03C59.4787 15.046 59.1847 13.936 59.1847 12.7C59.1847 11.464 59.4787 10.354 60.0667 9.37C60.6547 8.386 61.4647 7.618 62.4967 7.066C63.5407 6.502 64.7107 6.22 66.0067 6.22C67.0627 6.22 68.0227 6.394 68.8867 6.742C69.7507 7.09 70.4767 7.6 71.0647 8.272L69.5887 9.712C68.6287 8.752 67.4707 8.272 66.1147 8.272C65.2267 8.272 64.4347 8.458 63.7387 8.83C63.0547 9.202 62.5147 9.724 62.1187 10.396C61.7347 11.068 61.5427 11.836 61.5427 12.7C61.5427 13.54 61.7347 14.296 62.1187 14.968C62.5147 15.64 63.0547 16.168 63.7387 16.552C64.4347 16.936 65.2207 17.128 66.0967 17.128C67.0807 17.128 67.9447 16.912 68.6887 16.48V12.556Z" fill="white"/>
<path d="M24.598 39.18C23.626 39.18 22.684 39.042 21.772 38.766C20.872 38.49 20.158 38.124 19.63 37.668L20.44 35.85C20.956 36.258 21.586 36.594 22.33 36.858C23.086 37.11 23.842 37.236 24.598 37.236C25.534 37.236 26.23 37.086 26.686 36.786C27.154 36.486 27.388 36.09 27.388 35.598C27.388 35.238 27.256 34.944 26.992 34.716C26.74 34.476 26.416 34.29 26.02 34.158C25.624 34.026 25.084 33.876 24.4 33.708C23.44 33.48 22.66 33.252 22.06 33.024C21.472 32.796 20.962 32.442 20.53 31.962C20.11 31.47 19.9 30.81 19.9 29.982C19.9 29.286 20.086 28.656 20.458 28.092C20.842 27.516 21.412 27.06 22.168 26.724C22.936 26.388 23.872 26.22 24.976 26.22C25.744 26.22 26.5 26.316 27.244 26.508C27.988 26.7 28.63 26.976 29.17 27.336L28.432 29.154C27.88 28.83 27.304 28.584 26.704 28.416C26.104 28.248 25.522 28.164 24.958 28.164C24.034 28.164 23.344 28.32 22.888 28.632C22.444 28.944 22.222 29.358 22.222 29.874C22.222 30.234 22.348 30.528 22.6 30.756C22.864 30.984 23.194 31.164 23.59 31.296C23.986 31.428 24.526 31.578 25.21 31.746C26.146 31.962 26.914 32.19 27.514 32.43C28.114 32.658 28.624 33.012 29.044 33.492C29.476 33.972 29.692 34.62 29.692 35.436C29.692 36.132 29.5 36.762 29.116 37.326C28.744 37.89 28.174 38.34 27.406 38.676C26.638 39.012 25.702 39.18 24.598 39.18ZM37.1846 34.554V39H34.8446V34.59L29.8946 26.4H32.3966L36.0866 32.538L39.8126 26.4H42.1166L37.1846 34.554ZM47.2914 39.18C46.3194 39.18 45.3774 39.042 44.4654 38.766C43.5654 38.49 42.8514 38.124 42.3234 37.668L43.1334 35.85C43.6494 36.258 44.2794 36.594 45.0234 36.858C45.7794 37.11 46.5354 37.236 47.2914 37.236C48.2274 37.236 48.9234 37.086 49.3794 36.786C49.8474 36.486 50.0814 36.09 50.0814 35.598C50.0814 35.238 49.9494 34.944 49.6854 34.716C49.4334 34.476 49.1094 34.29 48.7134 34.158C48.3174 34.026 47.7774 33.876 47.0934 33.708C46.1334 33.48 45.3534 33.252 44.7534 33.024C44.1654 32.796 43.6554 32.442 43.2234 31.962C42.8034 31.47 42.5934 30.81 42.5934 29.982C42.5934 29.286 42.7794 28.656 43.1514 28.092C43.5354 27.516 44.1054 27.06 44.8614 26.724C45.6294 26.388 46.5654 26.22 47.6694 26.22C48.4374 26.22 49.1934 26.316 49.9374 26.508C50.6814 26.7 51.3234 26.976 51.8634 27.336L51.1254 29.154C50.5734 28.83 49.9974 28.584 49.3974 28.416C48.7974 28.248 48.2154 28.164 47.6514 28.164C46.7274 28.164 46.0374 28.32 45.5814 28.632C45.1374 28.944 44.9154 29.358 44.9154 29.874C44.9154 30.234 45.0414 30.528 45.2934 30.756C45.5574 30.984 45.8874 31.164 46.2834 31.296C46.6794 31.428 47.2194 31.578 47.9034 31.746C48.8394 31.962 49.6074 32.19 50.2074 32.43C50.8074 32.658 51.3174 33.012 51.7374 33.492C52.1694 33.972 52.3854 34.62 52.3854 35.436C52.3854 36.132 52.1934 36.762 51.8094 37.326C51.4374 37.89 50.8674 38.34 50.0994 38.676C49.3314 39.012 48.3954 39.18 47.2914 39.18ZM57.0859 28.38H52.9099V26.4H63.6019V28.38H59.4259V39H57.0859V28.38ZM74.808 37.038V39H65.358V26.4H74.556V28.362H67.698V31.638H73.782V33.564H67.698V37.038H74.808ZM88.9906 39L88.9726 30.648L84.8326 37.56H83.7886L79.6486 30.756V39H77.4166V26.4H79.3426L84.3466 34.752L89.2606 26.4H91.1866L91.2046 39H88.9906Z" fill="white"/>
</svg>
