<svg width="100" height="46" viewBox="0 0 100 46" fill="none" xmlns="http://www.w3.org/2000/svg">
<path fill-rule="evenodd" clip-rule="evenodd" d="M9.84669 1.64248C8.88821 1.63991 7.95991 1.97748 7.22696 2.5951L7.10377 2.69365C6.7361 2.56558 6.35196 2.49091 5.96309 2.47192C4.79948 2.51825 3.69915 3.01391 2.89342 3.85471C2.08769 4.69551 1.63933 5.81595 1.64259 6.98048C1.64103 8.15356 2.09716 9.28097 2.91399 10.1229C3.73081 10.9649 4.84388 11.455 6.01647 11.489C6.78597 12.0347 7.7077 12.3244 8.65103 12.317C9.59436 12.3097 10.5115 12.0056 11.2723 11.448C11.4785 11.4808 11.6871 11.4972 11.8957 11.4972C12.5077 11.4961 13.1131 11.3711 13.6755 11.1297C14.238 10.8884 14.7457 10.5357 15.1683 10.0929C17.0431 8.12199 16.8247 4.47408 14.4349 3.01886C13.7937 2.62956 13.0581 2.42336 12.3079 2.42264H12.2586C11.5576 1.91369 10.713 1.64051 9.84669 1.64248V1.64248ZM13.1316 5.74863H8.20833C7.99053 5.74863 7.78164 5.66211 7.62763 5.5081C7.47362 5.35409 7.3871 5.1452 7.3871 4.9274C7.3871 4.7096 7.47362 4.50071 7.62763 4.3467C7.78164 4.19269 7.99053 4.10617 8.20833 4.10617H13.1283C13.3461 4.10617 13.555 4.19269 13.709 4.3467C13.863 4.50071 13.9496 4.7096 13.9496 4.9274C13.9496 5.1452 13.863 5.35409 13.709 5.5081C13.555 5.66211 13.3461 5.74863 13.1283 5.74863H13.1316ZM13.1283 9.01302H4.92259C4.70478 9.01302 4.4959 8.9265 4.34189 8.77249C4.18788 8.61848 4.10135 8.4096 4.10135 8.19179C4.10135 7.97399 4.18788 7.7651 4.34189 7.61109C4.4959 7.45708 4.70478 7.37056 4.92259 7.37056H13.1283C13.3461 7.37056 13.555 7.45708 13.709 7.61109C13.863 7.7651 13.9496 7.97399 13.9496 8.19179C13.9496 8.4096 13.863 8.61848 13.709 8.77249C13.555 8.9265 13.3461 9.01302 13.1283 9.01302V9.01302ZM9.84669 1.352e-05C10.8767 -0.00222622 11.8883 0.273852 12.7744 0.799071C13.0816 0.883333 13.3967 0.935351 13.7147 0.954284C14.0289 1.03367 14.3358 1.13972 14.632 1.27128C15.5142 1.66464 16.2834 2.27318 16.8693 3.04111C17.4551 3.80904 17.8388 4.71177 17.9851 5.66651C18.2164 6.98622 18.0315 8.3452 17.456 9.55515C16.8805 10.7651 15.943 11.7661 14.7732 12.4195C13.888 12.8905 12.9009 13.1377 11.8981 13.1397H11.692C10.7563 13.6784 9.69536 13.9616 8.61566 13.9609C7.50948 13.9651 6.42323 13.6666 5.47445 13.0978C3.96533 12.9398 2.56898 12.226 1.55711 11.0953C0.545243 9.96456 -0.00975146 8.49781 0.000129016 6.98048C0.000129016 6.86633 0.000129682 6.75217 0.0124481 6.64624C0.100706 5.1199 0.751701 3.68049 1.83959 2.60626C2.92747 1.53202 4.37499 0.899255 5.90231 0.830278H6.03371C6.27371 0.841693 6.51267 0.869129 6.749 0.912401C7.67268 0.317442 8.74799 0.000721872 9.84669 1.352e-05V1.352e-05Z" fill="#4C38C9"/>
<path d="M15.6201 17.2442C14.7134 17.2442 13.9784 16.5092 13.9784 15.6026C13.9784 14.6959 14.7134 13.9609 15.6201 13.9609C16.5267 13.9609 17.2617 14.6959 17.2617 15.6026C17.2617 16.5092 16.5267 17.2442 15.6201 17.2442Z" fill="#4C38C9"/>
<path d="M17.2491 19.7108C16.7955 19.7108 16.4279 19.3431 16.4279 18.8896C16.4279 18.436 16.7955 18.0684 17.2491 18.0684C17.7026 18.0684 18.0703 18.436 18.0703 18.8896C18.0703 19.3431 17.7026 19.7108 17.2491 19.7108Z" fill="#4C38C9"/>
<line x1="4" y1="20.85" x2="71" y2="20.85" stroke="black" stroke-width="0.3"/>
<path d="M29.62 12.448C30.316 12.676 30.868 13.06 31.276 13.6C31.684 14.128 31.888 14.788 31.888 15.58C31.888 16.672 31.468 17.518 30.628 18.118C29.788 18.706 28.564 19 26.956 19H20.692V6.4H26.596C28.084 6.4 29.23 6.694 30.034 7.282C30.838 7.858 31.24 8.656 31.24 9.676C31.24 10.3 31.096 10.852 30.808 11.332C30.52 11.812 30.124 12.184 29.62 12.448ZM23.032 8.236V11.71H26.344C27.16 11.71 27.784 11.566 28.216 11.278C28.66 10.978 28.882 10.546 28.882 9.982C28.882 9.406 28.66 8.974 28.216 8.686C27.784 8.386 27.16 8.236 26.344 8.236H23.032ZM26.812 17.164C28.624 17.164 29.53 16.558 29.53 15.346C29.53 14.134 28.624 13.528 26.812 13.528H23.032V17.164H26.812ZM34.3854 6.4H36.7254V17.02H43.3134V19H34.3854V6.4ZM50.8182 19.18C49.5342 19.18 48.3762 18.904 47.3442 18.352C46.3122 17.788 45.5022 17.014 44.9142 16.03C44.3262 15.034 44.0322 13.924 44.0322 12.7C44.0322 11.476 44.3262 10.372 44.9142 9.388C45.5022 8.392 46.3122 7.618 47.3442 7.066C48.3762 6.502 49.5342 6.22 50.8182 6.22C52.1022 6.22 53.2602 6.502 54.2922 7.066C55.3242 7.618 56.1342 8.386 56.7222 9.37C57.3102 10.354 57.6042 11.464 57.6042 12.7C57.6042 13.936 57.3102 15.046 56.7222 16.03C56.1342 17.014 55.3242 17.788 54.2922 18.352C53.2602 18.904 52.1022 19.18 50.8182 19.18ZM50.8182 17.128C51.6582 17.128 52.4142 16.942 53.0862 16.57C53.7582 16.186 54.2862 15.658 54.6702 14.986C55.0542 14.302 55.2462 13.54 55.2462 12.7C55.2462 11.86 55.0542 11.104 54.6702 10.432C54.2862 9.748 53.7582 9.22 53.0862 8.848C52.4142 8.464 51.6582 8.272 50.8182 8.272C49.9782 8.272 49.2222 8.464 48.5502 8.848C47.8782 9.22 47.3502 9.748 46.9662 10.432C46.5822 11.104 46.3902 11.86 46.3902 12.7C46.3902 13.54 46.5822 14.302 46.9662 14.986C47.3502 15.658 47.8782 16.186 48.5502 16.57C49.2222 16.942 49.9782 17.128 50.8182 17.128ZM68.6886 12.556H70.9026V17.578C70.2546 18.094 69.4986 18.49 68.6346 18.766C67.7706 19.042 66.8826 19.18 65.9706 19.18C64.6866 19.18 63.5286 18.904 62.4966 18.352C61.4646 17.788 60.6546 17.014 60.0666 16.03C59.4786 15.046 59.1846 13.936 59.1846 12.7C59.1846 11.464 59.4786 10.354 60.0666 9.37C60.6546 8.386 61.4646 7.618 62.4966 7.066C63.5406 6.502 64.7106 6.22 66.0066 6.22C67.0626 6.22 68.0226 6.394 68.8866 6.742C69.7506 7.09 70.4766 7.6 71.0646 8.272L69.5886 9.712C68.6286 8.752 67.4706 8.272 66.1146 8.272C65.2266 8.272 64.4346 8.458 63.7386 8.83C63.0546 9.202 62.5146 9.724 62.1186 10.396C61.7346 11.068 61.5426 11.836 61.5426 12.7C61.5426 13.54 61.7346 14.296 62.1186 14.968C62.5146 15.64 63.0546 16.168 63.7386 16.552C64.4346 16.936 65.2206 17.128 66.0966 17.128C67.0806 17.128 67.9446 16.912 68.6886 16.48V12.556Z" fill="black"/>
<path d="M24.598 39.18C23.626 39.18 22.684 39.042 21.772 38.766C20.872 38.49 20.158 38.124 19.63 37.668L20.44 35.85C20.956 36.258 21.586 36.594 22.33 36.858C23.086 37.11 23.842 37.236 24.598 37.236C25.534 37.236 26.23 37.086 26.686 36.786C27.154 36.486 27.388 36.09 27.388 35.598C27.388 35.238 27.256 34.944 26.992 34.716C26.74 34.476 26.416 34.29 26.02 34.158C25.624 34.026 25.084 33.876 24.4 33.708C23.44 33.48 22.66 33.252 22.06 33.024C21.472 32.796 20.962 32.442 20.53 31.962C20.11 31.47 19.9 30.81 19.9 29.982C19.9 29.286 20.086 28.656 20.458 28.092C20.842 27.516 21.412 27.06 22.168 26.724C22.936 26.388 23.872 26.22 24.976 26.22C25.744 26.22 26.5 26.316 27.244 26.508C27.988 26.7 28.63 26.976 29.17 27.336L28.432 29.154C27.88 28.83 27.304 28.584 26.704 28.416C26.104 28.248 25.522 28.164 24.958 28.164C24.034 28.164 23.344 28.32 22.888 28.632C22.444 28.944 22.222 29.358 22.222 29.874C22.222 30.234 22.348 30.528 22.6 30.756C22.864 30.984 23.194 31.164 23.59 31.296C23.986 31.428 24.526 31.578 25.21 31.746C26.146 31.962 26.914 32.19 27.514 32.43C28.114 32.658 28.624 33.012 29.044 33.492C29.476 33.972 29.692 34.62 29.692 35.436C29.692 36.132 29.5 36.762 29.116 37.326C28.744 37.89 28.174 38.34 27.406 38.676C26.638 39.012 25.702 39.18 24.598 39.18ZM37.1846 34.554V39H34.8446V34.59L29.8946 26.4H32.3966L36.0866 32.538L39.8126 26.4H42.1166L37.1846 34.554ZM47.2914 39.18C46.3194 39.18 45.3774 39.042 44.4654 38.766C43.5654 38.49 42.8514 38.124 42.3234 37.668L43.1334 35.85C43.6494 36.258 44.2794 36.594 45.0234 36.858C45.7794 37.11 46.5354 37.236 47.2914 37.236C48.2274 37.236 48.9234 37.086 49.3794 36.786C49.8474 36.486 50.0814 36.09 50.0814 35.598C50.0814 35.238 49.9494 34.944 49.6854 34.716C49.4334 34.476 49.1094 34.29 48.7134 34.158C48.3174 34.026 47.7774 33.876 47.0934 33.708C46.1334 33.48 45.3534 33.252 44.7534 33.024C44.1654 32.796 43.6554 32.442 43.2234 31.962C42.8034 31.47 42.5934 30.81 42.5934 29.982C42.5934 29.286 42.7794 28.656 43.1514 28.092C43.5354 27.516 44.1054 27.06 44.8614 26.724C45.6294 26.388 46.5654 26.22 47.6694 26.22C48.4374 26.22 49.1934 26.316 49.9374 26.508C50.6814 26.7 51.3234 26.976 51.8634 27.336L51.1254 29.154C50.5734 28.83 49.9974 28.584 49.3974 28.416C48.7974 28.248 48.2154 28.164 47.6514 28.164C46.7274 28.164 46.0374 28.32 45.5814 28.632C45.1374 28.944 44.9154 29.358 44.9154 29.874C44.9154 30.234 45.0414 30.528 45.2934 30.756C45.5574 30.984 45.8874 31.164 46.2834 31.296C46.6794 31.428 47.2194 31.578 47.9034 31.746C48.8394 31.962 49.6074 32.19 50.2074 32.43C50.8074 32.658 51.3174 33.012 51.7374 33.492C52.1694 33.972 52.3854 34.62 52.3854 35.436C52.3854 36.132 52.1934 36.762 51.8094 37.326C51.4374 37.89 50.8674 38.34 50.0994 38.676C49.3314 39.012 48.3954 39.18 47.2914 39.18ZM57.0859 28.38H52.9099V26.4H63.6019V28.38H59.4259V39H57.0859V28.38ZM74.808 37.038V39H65.358V26.4H74.556V28.362H67.698V31.638H73.782V33.564H67.698V37.038H74.808ZM88.9906 39L88.9726 30.648L84.8326 37.56H83.7886L79.6486 30.756V39H77.4166V26.4H79.3426L84.3466 34.752L89.2606 26.4H91.1866L91.2046 39H88.9906Z" fill="#4C38C9"/>
</svg>
